<svg xmlns="http://www.w3.org/2000/svg" width="716.92" height="800" viewBox="0 0 716.92 800" xmlns:xlink="http://www.w3.org/1999/xlink" role="img" artist="Katerina Limpitsouni" source="https://undraw.co/"><g transform="translate(-560 -200.022)"><path d="M411.714,227.372l291.873-28.709a23.95,23.95,0,0,0,9.586-3.129,29.046,29.046,0,0,0,7.928-6.781,32.706,32.706,0,0,0,7.387-20.6A30.3,30.3,0,0,0,728,162.7a27.316,27.316,0,0,0-1.427-5.047,24.826,24.826,0,0,0-2.316-4.514,23.132,23.132,0,0,0-3.154-3.861,21.52,21.52,0,0,0-3.816-3,20.225,20.225,0,0,0-8.873-2.934,21.755,21.755,0,0,0-4.826.124L411.714,182.953a13.487,13.487,0,0,0-6.136,2.57,20.282,20.282,0,0,0-4.971,5.385,27.834,27.834,0,0,0-3.331,7.408,31.4,31.4,0,0,0-1.218,8.675,30.358,30.358,0,0,0,.3,4.274,26.858,26.858,0,0,0,.874,3.987,23.1,23.1,0,0,0,1.424,3.613,19.527,19.527,0,0,0,1.951,3.152,15.911,15.911,0,0,0,2.382,2.521,12.889,12.889,0,0,0,2.689,1.757,11.2,11.2,0,0,0,6.039,1.078Z" transform="translate(548.433 56.754)" fill="#6c63ff"/><path d="M396.058,214.613,558.2,198.663a23.95,23.95,0,0,0,9.586-3.129,29.048,29.048,0,0,0,7.928-6.781,32.705,32.705,0,0,0,7.387-20.6,30.3,30.3,0,0,0-.486-5.455,27.309,27.309,0,0,0-1.427-5.047,24.826,24.826,0,0,0-2.316-4.514,23.13,23.13,0,0,0-3.154-3.861,21.515,21.515,0,0,0-3.816-3,20.224,20.224,0,0,0-8.873-2.934,21.756,21.756,0,0,0-4.826.124L396.062,165.408Z" transform="translate(693.817 56.754)" fill="#e6e6e6"/><path d="M547.882,214.714a4.783,4.783,0,0,0,2.1-.742,6.407,6.407,0,0,0,1.715-1.625,8.077,8.077,0,0,0,1.163-2.285,8.732,8.732,0,0,0,.428-2.7V164.245a7.822,7.822,0,0,0-.427-2.6,6.037,6.037,0,0,0-1.164-2.011,4.57,4.57,0,0,0-1.72-1.237,4.112,4.112,0,0,0-2.1-.247,4.958,4.958,0,0,0-2.091.824,6.752,6.752,0,0,0-1.7,1.7,8.419,8.419,0,0,0-1.148,2.314,8.868,8.868,0,0,0-.421,2.694v42.769a7.955,7.955,0,0,0,.421,2.6,6.311,6.311,0,0,0,1.148,2.044,4.8,4.8,0,0,0,1.705,1.293,4.164,4.164,0,0,0,2.091.332Z" transform="translate(542.408 60.277)" fill="#3f3d56"/><path d="M338.553,184.161a6.407,6.407,0,0,1-.857-.147,6.777,6.777,0,0,1-.85-.267,7.222,7.222,0,0,1-.832-.385,7.728,7.728,0,0,1-.8-.5,8.006,8.006,0,0,1-3.126-4.6,7.862,7.862,0,0,1-.229-1.887V144a7.219,7.219,0,0,1,.229-1.83,6.282,6.282,0,0,1,.662-1.609,5.692,5.692,0,0,1,2.465-2.258,5.825,5.825,0,0,1,1.635-.5,6.062,6.062,0,0,1,1.708-.015,6.717,6.717,0,0,1,1.7.463,7.672,7.672,0,0,1,1.623.928l25.859,19.211A7.908,7.908,0,0,1,369,159.557a8,8,0,0,1,1.622,2.97,7.9,7.9,0,0,1,.3,1.684,1.069,1.069,0,0,0,.009.136.538.538,0,0,1,0,.136v.273a7.246,7.246,0,0,1-.218,1.788,6.32,6.32,0,0,1-.631,1.575,5.75,5.75,0,0,1-1.009,1.3,5.622,5.622,0,0,1-1.339.96l-25.861,13.167a5.933,5.933,0,0,1-2.471.642,6.126,6.126,0,0,1-.854-.027Z" transform="translate(543.691 99.892)" fill="#cacaca"/><path d="M411.784,334.707l291.842,5.5a21.964,21.964,0,0,0,9.585-2.006,24.53,24.53,0,0,0,7.928-5.851,28.032,28.032,0,0,0,5.4-8.836,30.832,30.832,0,0,0,0-21.793,28.058,28.058,0,0,0-5.4-8.838,24.556,24.556,0,0,0-7.928-5.859,21.975,21.975,0,0,0-9.585-2.012L411.784,290.29a12.09,12.09,0,0,0-6.136,1.856,17.048,17.048,0,0,0-4.969,4.792,24.366,24.366,0,0,0-3.33,7.017,30.517,30.517,0,0,0,0,17.066,24.391,24.391,0,0,0,3.33,7.021,17.077,17.077,0,0,0,4.969,4.807,12.1,12.1,0,0,0,6.136,1.859Z" transform="translate(548.306 61.482)" fill="#6c63ff"/><path d="M396.132,338.06l114.068,2.15a21.963,21.963,0,0,0,9.585-2.006,24.529,24.529,0,0,0,7.928-5.851,28.031,28.031,0,0,0,5.4-8.836,30.456,30.456,0,0,0,1.99-10.9,31.258,31.258,0,0,0-.486-5.512,29.9,29.9,0,0,0-1.427-5.213,28.563,28.563,0,0,0-2.316-4.785,27.419,27.419,0,0,0-3.153-4.231,25.568,25.568,0,0,0-3.816-3.448,23.394,23.394,0,0,0-4.269-2.487,22.023,22.023,0,0,0-9.431-1.93l-114.068,2.061Z" transform="translate(741.732 61.481)" fill="#e6e6e6"/><path d="M510.58,341.717a4.8,4.8,0,0,0,2.247-.507,5.733,5.733,0,0,0,1.841-1.477,7.167,7.167,0,0,0,1.246-2.227,8.291,8.291,0,0,0,.458-2.739V290.146a8.289,8.289,0,0,0-.458-2.742,7.165,7.165,0,0,0-1.246-2.227,5.733,5.733,0,0,0-1.841-1.472,4.8,4.8,0,0,0-2.247-.507,4.918,4.918,0,0,0-2.24.6,6.033,6.033,0,0,0-1.825,1.543,7.48,7.48,0,0,0-1.229,2.254,8.429,8.429,0,0,0-.45,2.736V334.58a8.43,8.43,0,0,0,.451,2.736,7.482,7.482,0,0,0,1.229,2.256,6.032,6.032,0,0,0,1.825,1.545,4.917,4.917,0,0,0,2.24.6Z" transform="translate(625.951 61.051)" fill="#3f3d56"/><path d="M338.633,334.983a6.2,6.2,0,0,1-1.708-.214,6.37,6.37,0,0,1-.832-.287,6.619,6.619,0,0,1-.8-.408,6.735,6.735,0,0,1-1.408-1.113,6.806,6.806,0,0,1-1.055-1.435,7.088,7.088,0,0,1-.662-1.683,7.532,7.532,0,0,1-.229-1.856V295.61a7.534,7.534,0,0,1,.229-1.856,7.089,7.089,0,0,1,.662-1.68,6.7,6.7,0,0,1,2.465-2.548,6.5,6.5,0,0,1,1.635-.7,6.2,6.2,0,0,1,3.41.048,6.662,6.662,0,0,1,1.622.739l25.861,16.177.093.059.093.061.092.062.09.063a6.658,6.658,0,0,1,1.13,1.034,6.811,6.811,0,0,1,.866,1.258,7.1,7.1,0,0,1,.573,1.437,7.473,7.473,0,0,1,.26,1.569v.452a7.546,7.546,0,0,1-.218,1.813,7.12,7.12,0,0,1-.631,1.648,6.81,6.81,0,0,1-1.007,1.417,6.655,6.655,0,0,1-1.35,1.114l-25.851,16.205a6.788,6.788,0,0,1-.8.429,6.494,6.494,0,0,1-.827.311,6.312,6.312,0,0,1-.846.192,6.2,6.2,0,0,1-.856.072Z" transform="translate(543.61 57.884)" fill="#cacaca"/><path d="M411.714,447.259l291.873,39.6a20.624,20.624,0,0,0,17.515-5.816,23.968,23.968,0,0,0,5.4-8.2,28.614,28.614,0,0,0,1.989-10.66,32.715,32.715,0,0,0-7.387-20.6,29.064,29.064,0,0,0-7.928-6.784,23.96,23.96,0,0,0-9.586-3.133L411.714,402.841a11.183,11.183,0,0,0-6.136,1.133,14.363,14.363,0,0,0-4.971,4.222,21.236,21.236,0,0,0-3.331,6.628,28.455,28.455,0,0,0-1.218,8.391,31.4,31.4,0,0,0,1.218,8.675,27.84,27.84,0,0,0,3.331,7.409,20.291,20.291,0,0,0,4.971,5.387A13.488,13.488,0,0,0,411.714,447.259Z" transform="translate(548.432 63.294)" fill="#6c63ff"/><path d="M396.058,452.606l245.98,33.376a20.624,20.624,0,0,0,17.515-5.816,23.969,23.969,0,0,0,5.4-8.2,28.613,28.613,0,0,0,1.989-10.655,32.227,32.227,0,0,0-.486-5.568,32.582,32.582,0,0,0-6.9-15.042,30.447,30.447,0,0,0-3.816-3.889,27.421,27.421,0,0,0-4.268-2.991,24.908,24.908,0,0,0-4.6-2.024,23.165,23.165,0,0,0-4.826-1.008L396.058,406.492Z" transform="translate(609.981 64.174)" fill="#e6e6e6"/><path d="M338.552,485.322a6.2,6.2,0,0,1-.857.053,5.961,5.961,0,0,1-.849-.067,5.813,5.813,0,0,1-1.635-.5,5.691,5.691,0,0,1-2.465-2.263,6.28,6.28,0,0,1-.662-1.609,7.217,7.217,0,0,1-.229-1.823V446.729a7.863,7.863,0,0,1,.229-1.883,8.014,8.014,0,0,1,3.127-4.6,7.466,7.466,0,0,1,1.634-.887,6.6,6.6,0,0,1,1.708-.414,6.046,6.046,0,0,1,1.7.064,5.9,5.9,0,0,1,1.621.548l25.861,13.157.094.048.093.051.092.052.09.053a5.594,5.594,0,0,1,1.077.849,5.749,5.749,0,0,1,.839,1.079,6.209,6.209,0,0,1,.58,1.273,6.9,6.9,0,0,1,.3,1.432q.01.1.017.193t.012.2q0,.1.007.2a1.336,1.336,0,0,1,0,.2,7.872,7.872,0,0,1-.218,1.838,8,8,0,0,1-1.625,3.26,7.906,7.906,0,0,1-1.361,1.276l-25.86,19.22a7.972,7.972,0,0,1-.8.522,7.377,7.377,0,0,1-.826.407,6.927,6.927,0,0,1-.846.291,6.51,6.51,0,0,1-.855.172Z" transform="translate(543.68 22.849)" fill="#cacaca"/><path d="M614.971,456.438a3.418,3.418,0,0,0,1.845-.248,4.082,4.082,0,0,0,1.511-1.165,5.823,5.823,0,0,0,1.027-1.9,7.806,7.806,0,0,0,.371-2.441V410.271a8.661,8.661,0,0,0-.371-2.529,7.713,7.713,0,0,0-1.027-2.136,5.749,5.749,0,0,0-1.512-1.518,4.012,4.012,0,0,0-1.844-.679,3.464,3.464,0,0,0-1.839.326,4.3,4.3,0,0,0-1.5,1.222,6.083,6.083,0,0,0-1.01,1.924,7.933,7.933,0,0,0-.371,2.436v40.11a8.783,8.783,0,0,0,.371,2.523,8.021,8.021,0,0,0,1.01,2.16,6.064,6.064,0,0,0,1.5,1.571,4.168,4.168,0,0,0,1.839.756Z" transform="translate(392.163 63.438)" fill="#3f3d56"/><path d="M217.581,287.148,175.2,432.008a31.763,31.763,0,0,0,27.715,40.56l46.242,4.048L217.581,287.148Z" transform="translate(386.09 295.392)" fill="#6c63ff"/><path d="M217.581,287.148,175.2,432.008a31.763,31.763,0,0,0,27.715,40.56l46.242,4.048L217.581,287.148Z" transform="translate(386.09 295.392)" opacity="0.1" style="isolation:isolate"/><path d="M642.246,249.289l-56.684,93.745-26.689-33.813,52.161-81.665c-1.853-9.5.391-20.529,7.022-30.052,11.6-16.664,32.188-22.388,45.979-12.785S679.6,215.612,668,232.276c-6.631,9.524-16.2,15.454-25.749,17.013Z" transform="translate(346.059 306.527)" fill="#ed9da0"/><path d="M253.048,510.953,246.241,534.1l.231,23.475S201.7,611.428,218.194,727.9l209.779-2.63L402.984,537.85l-149.936-26.9Z" transform="translate(381.864 272.121)" fill="#090814"/><path d="M283.869,146a59.49,59.49,0,1,1,77.314,56.771l-8.869,7.146,15.923,55.732L349.682,278.78l-58.628-48.857s12.666-16.132,19.458-34.323A59.426,59.426,0,0,1,283.869,146h0Z" transform="translate(374.655 316.255)" fill="#ed9da0"/><path d="M563.726,252.9c-21-.32-59.83,67.083-59.83,67.083L472,308.7l-65.6-23.222-50.272-20.691.221,1.52c-.2-.477-.413-.958-.65-1.444-5.285-10.89-20.637-23.7-64.223-21.163L270.96,259.9l-2.791,2.219a63.3,63.3,0,0,0-25.854,4.027c-9.335,3.753-18.67,10.754-23.086,23.84-2.288,6.75-2.288,20.706-.915,38.438,4.965,64.2,28.1,200.681,28.1,200.681L392.5,509.765l10.776.252s1.281-14.711,2.425-33.976c.709-11.3,1.35-24.138,1.716-36.493.252-9.06.32-17.846.16-25.579-.023-.481-.023-.961-.046-1.442-.435-14.116-1.853-24.343-4.9-25.464,0,0,9.449-.252,23.085-.755,32.947-1.235,90.374-4,98.565-8.465,11.577-6.292,72.276-90.74,72.276-90.74S584.752,253.24,563.726,252.9h0Z" transform="translate(381.569 299.944)" fill="#6c63ff"/><path d="M992.215,341.163h0a49.081,49.081,0,0,1,9.476.942,41.527,41.527,0,0,1,18.09-4.169h1.642c31.656,0,57.318,28.645,57.318,63.981h-10.607l-1.714-13.039-2.511,13.039h-8.837a125.031,125.031,0,0,1,4.1,32.055v65.123h-16.037l-9.285-24.128,2.322,24.128H915.159V447.962C915.159,388.979,949.658,341.163,992.215,341.163Z" transform="translate(-301.236 35.702)" fill="#090814"/></g></svg>